<svg width="192" height="48" viewBox="0 0 192 48" fill="none" xmlns="http://www.w3.org/2000/svg">
  <path d="M32.8 34.5L21.9 23.3L42.3 13.5H21.9L12.2 23.3L21.9 34.5H32.8Z" fill="currentColor"/>
  <path d="M21.9 13.5L36.5 34.5H12.2L21.9 13.5Z" fill="currentColor" fill-opacity="0.6"/>
  <path d="M54.1 22.4H62.7V25.5H54.1V31.7H63.9V34.8H50.6V13.2H63.8V16.3H54.1V22.4Z" fill="currentColor"/>
  <path d="M66.7 34.8V13.2H70.2V34.8H66.7Z" fill="currentColor"/>
  <path d="M93.1 13.2V34.8H90.1L78 19.5V34.8H74.5V13.2H77.5L89.6 28.6V13.2H93.1Z" fill="currentColor"/>
  <path d="M106.9 35.1C104.7 35.1 102.7 34.6 101 33.5C99.3 32.4 98 31 97.1 29.2C96.1 27.4 95.7 25.3 95.7 23C95.7 20.7 96.1 18.6 97.1 16.8C98 15 99.3 13.6 101 12.5C102.7 11.4 104.7 10.9 106.9 10.9C108.7 10.9 110.4 11.3 111.8 12C113.2 12.8 114.4 13.8 115.2 15.2L112.6 17.2C111.9 16.2 111.1 15.5 110.2 15C109.3 14.5 108.2 14.2 106.9 14.2C105.4 14.2 104.1 14.5 102.9 15.2C101.7 15.9 100.8 16.9 100.1 18.2C99.4 19.5 99.1 21.2 99.1 23C99.1 24.8 99.4 26.5 100.1 27.8C100.8 29.1 101.7 30.1 102.9 30.8C104.1 31.5 105.4 31.8 106.9 31.8C108.2 31.8 109.3 31.5 110.2 31C111.1 30.5 111.9 29.8 112.6 28.8L115.2 30.8C114.4 32.2 113.2 33.2 111.8 34C110.4 34.7 108.7 35.1 106.9 35.1Z" fill="currentColor"/>
  <path d="M122.5 16.3H115.6V13.2H133V16.3H126.1V34.8H122.6V16.3H122.5Z" fill="currentColor"/>
  <path d="M131.3 13.2H134.8V34.8H131.3V13.2Z" fill="currentColor"/>
  <path d="M147.8 35.1C145.6 35.1 143.6 34.6 141.9 33.5C140.2 32.4 138.9 31 138 29.2C137 27.4 136.6 25.3 136.6 23C136.6 20.7 137 18.6 138 16.8C138.9 15 140.2 13.6 141.9 12.5C143.6 11.4 145.6 10.9 147.8 10.9C149.6 10.9 151.3 11.3 152.7 12C154.1 12.8 155.3 13.8 156.1 15.2L153.5 17.2C152.8 16.2 152 15.5 151.1 15C150.2 14.5 149.1 14.2 147.8 14.2C146.3 14.2 145 14.5 143.8 15.2C142.6 15.9 141.7 16.9 141 18.2C140.3 19.5 140 21.2 140 23C140 24.8 140.3 26.5 141 27.8C141.7 29.1 142.6 30.1 143.8 30.8C145 31.5 146.3 31.8 147.8 31.8C149.1 31.8 150.2 31.5 151.1 31C152 30.5 152.8 29.8 153.5 28.8L156.1 30.8C155.3 32.2 154.1 33.2 152.7 34C151.3 34.7 149.6 35.1 147.8 35.1Z" fill="currentColor"/>
  <path d="M177.7 13.2V34.8H174.7L162.6 19.5V34.8H159.1V13.2H162.1L174.2 28.6V13.2H177.7Z" fill="currentColor"/>
</svg>
