<svg width="128" height="48" viewBox="0 0 128 48" fill="none" xmlns="http://www.w3.org/2000/svg">
  <path d="M48.7 24.5C48.5 22.8 47.8 21.7 46.9 21C45.1 19.5 41.5 19.5 38.5 21.3C36.7 22.3 33.9 24.8 31.1 28.3C29.3 30.6 28.2 31.8 27.4 32.1C26.1 32.6 25 31.1 25.6 28.3C25.9 26.9 25.8 26 25.5 25.4C24.8 24.2 23.3 23.8 21.3 24C20 24.1 19 24.4 18.1 24.8C14.1 26.6 11.3 30 11.7 32.6C11.9 34.3 13.1 35.3 15.3 35.6C16.5 35.8 17.3 35.7 18.9 35.3C19.6 35.1 20.8 34.7 21.7 34.4C26.7 32.7 31.7 34.8 34.2 39.7C34.5 40.3 34.8 40.7 34.9 40.8C35.5 41.5 36.7 41.2 36.7 40.3C36.7 39.7 36.1 38.5 35.3 37.4C34 35.8 33.9 35.6 33.9 34.8C33.9 33.3 35.3 31.6 37.5 30.6C38 30.4 39.1 30 39.9 29.7C43.9 28.5 47 26.4 48.2 24.8C48.6 24.1 48.8 25 48.7 24.5ZM36.1 24.5C35.9 24.9 34.8 25.4 34.2 25.4C33.4 25.4 33.2 24.9 33.7 24.3C34.1 23.9 35 23.5 35.6 23.5C36 23.6 36.3 24.1 36.1 24.5Z" fill="currentColor"/>
</svg>
