<svg width="128" height="48" viewBox="0 0 128 48" fill="none" xmlns="http://www.w3.org/2000/svg">
  <path d="M45.9 15.1C45.3 14.5 44.5 14.3 43.7 14.5L24.7 19.5C24.1 19.7 23.7 20.2 23.7 20.8V33.6C23.7 34.2 24.1 34.7 24.7 34.9L43.7 39.9C43.8 40 44 40 44.1 40C44.7 40 45.2 39.8 45.6 39.4C46.2 38.8 46.4 38 46.2 37.2L41.3 18.2C41.1 16.9 40.7 15.7 39.9 14.9C37.7 12.7 34.2 12.7 32 14.9L28.9 18C28.6 18.3 28.6 18.9 28.9 19.2C29.2 19.5 29.8 19.5 30.1 19.2L33.2 16.1C34.8 14.5 37.1 14.5 38.7 16.1C39.2 16.6 39.5 17.5 39.6 18.4L44.5 37.4C44.6 37.8 44.5 38.2 44.3 38.4C44.1 38.6 43.7 38.7 43.3 38.6L24.3 33.6C24.1 33.5 24 33.4 24 33.2V20.8C24 20.6 24.1 20.5 24.3 20.4L43.3 15.4C43.7 15.3 44.1 15.4 44.3 15.6C44.5 15.8 44.6 16.2 44.5 16.6L42.5 24.9C42.4 25.3 42.7 25.7 43.1 25.8C43.5 25.9 43.9 25.6 44 25.2L46 16.9C46.2 16.1 46.2 15.5 45.9 15.1Z" fill="currentColor"/>
</svg>
