<svg xmlns="http://www.w3.org/2000/svg" viewBox="0 0 768 768"><g><path fill="#4285F4" d="M661.6 392.7c0-27.7-2.2-55.4-6.9-82.6H384v156h156.1c-6.8 36.6-27.1 67.7-57.9 88.6l93.3 72.6c54.3-50.1 86.1-124 86.1-234.6z"/><path fill="#34A853" d="M384 704c78.2 0 143.8-25.9 191.7-70.4l-93.3-72.6c-25.9 17.4-59 27.7-98.4 27.7-75.7 0-140-51.1-162.9-119.9l-95.5 73.7C84.7 661.2 177.4 704 384 704z"/><path fill="#FBBC05" d="M221.1 468.8c-11.6-34.6-11.6-71.8 0-106.4l-95.5-73.7C74.9 351.1 64 383.5 64 419.5s10.9 68.4 61.6 130.8l95.5-73.7z"/><path fill="#EA4335" d="M384 272.8c41.2-.7 80.7 14.1 110.8 41.4l83.1-81.1C531.2 184.1 462.2 160 384 160c-206.6 0-299.3 42.8-347.6 106.4l95.5 73.7C244 323.9 308.3 272.8 384 272.8z"/></g></svg>
